<svg width="345" height="79" viewBox="0 0 345 79" fill="none" xmlns="http://www.w3.org/2000/svg">
<rect x="28.7286" y="21.5058" width="1.24479" height="7.57199" rx="0.622396" fill="#272727"/>
<path d="M27.7884 26C26.2114 26.4872 25.5 27.844 25.5 29.4415C25.5 31.0411 26.6375 32.3993 28.2176 32.8848C28.1805 62.3783 26.9462 68 26.3674 73.3827C25.6021 80.5 33.7551 80.3654 32.77 73.3827C31.9913 67.8624 30.8195 62.3783 30.7824 32.8848C32.3625 32.3993 33.5 31.0411 33.5 29.4415C33.5 27.8334 32.7466 26.4788 31.1533 26V27.8745C31.5974 28.2078 31.4843 28.712 31.4843 29.2763C31.4843 30.2798 30.5888 31.0933 29.4843 31.0933C28.3797 31.0933 27.4843 30.2798 27.4843 29.2763C27.4843 28.712 27.3442 28.2078 27.7884 27.8745V26Z" fill="#272727"/>
<path d="M40.5706 24.0327C42.0996 53.3654 47.3161 67.3976 57.6872 74.5899C58.6209 74.7004 59.1047 74.7028 58.9809 73.9937L57.3343 67.3164C50.6524 61.2057 46.9809 57.2062 44.1617 21.5287C43.7056 19.3539 42.3523 18.2903 36.5168 16.8784C31.0679 16.3221 27.9945 16.3165 22.4832 16.8784C16.6477 18.2903 15.2944 19.3539 14.8383 21.5287C12.0191 57.2062 8.34759 61.2057 1.66568 67.3164L0.019097 73.9937C-0.104736 74.7028 0.379092 74.7004 1.31284 74.5899C11.6839 67.3976 16.9004 53.3654 18.4294 24.0327C19.068 22.0423 19.5698 21.8989 20.8366 20.8768C22.5805 19.864 23.7093 19.2695 26.4877 19.0924C26.8111 19.0718 27.1604 19.0496 27.5405 19.0247H27.7551C27.0317 19.5169 26.5556 20.3538 26.5556 21.3035C26.5556 22.4976 27.0506 23.4189 28.1012 23.7954V22.0423C27.9401 21.8405 28.1012 21.5834 28.1012 21.3035C28.1012 20.6544 28.6203 20.1282 29.2605 20.1282C29.9008 20.1282 30.4198 20.6544 30.4198 21.3035C30.4198 21.5834 30.5809 21.8405 30.4198 22.0423V23.7954C31.4705 23.419 31.9657 22.4976 31.9657 21.3035C31.9657 20.3538 31.4895 19.5169 30.7661 19.0247H31.4595C31.8396 19.0496 32.1889 19.0718 32.5123 19.0924C35.2907 19.2695 36.5168 20.1282 38.1634 20.8768C39.6413 21.8989 40.1431 22.4077 40.5706 24.0327Z" fill="#272727"/>
<path fill-rule="evenodd" clip-rule="evenodd" d="M32.5686 0V2.86173C34.5788 3.05059 35.7064 3.35866 37.7435 4.29259C39.2725 5.00802 39.6531 5.80917 39.5077 7.03508L37.5083 13.7124L38.136 15.7942L30.524 15.144V0H32.5686ZM32.5737 13.1163L35.2788 13.1163L35.3026 13.0511C36.8151 8.92302 37.5079 7.03197 36.4549 6.43889C35.3964 5.84269 34.2131 5.42886 32.5737 5.2465V13.1163Z" fill="#272727"/>
<path fill-rule="evenodd" clip-rule="evenodd" d="M26.7187 0V2.86173C24.7084 3.05059 23.5808 3.35866 21.5437 4.29259C20.0147 5.00802 19.6342 5.80917 19.7795 7.03508L21.7789 13.7124L21.0751 15.7942L28.7632 15.144V0H26.7187ZM26.7135 13.1163L24.0085 13.1163L23.9846 13.0511C22.4722 8.92302 21.7793 7.03197 22.8323 6.43889C23.8909 5.84269 25.0742 5.42886 26.7135 5.2465V13.1163Z" fill="#272727"/>
<path d="M81.8789 32.9863V40H77.7773V20.0938H85.543C87.0378 20.0938 88.3503 20.3672 89.4805 20.9141C90.6198 21.4609 91.4948 22.2402 92.1055 23.252C92.7161 24.2546 93.0215 25.3984 93.0215 26.6836C93.0215 28.6341 92.3516 30.1745 91.0117 31.3047C89.681 32.4258 87.8353 32.9863 85.4746 32.9863H81.8789ZM81.8789 29.6641H85.543C86.6276 29.6641 87.4525 29.4089 88.0176 28.8984C88.5918 28.388 88.8789 27.6589 88.8789 26.7109C88.8789 25.7357 88.5918 24.9473 88.0176 24.3457C87.4434 23.7441 86.6504 23.4342 85.6387 23.416H81.8789V29.6641ZM103.316 29.5L106.939 20.0938H111.369L104.41 36.5137L103.85 37.5938C102.82 39.3893 101.243 40.2871 99.1191 40.2871L97.6836 40.2324L97.6426 36.9375C97.8613 36.974 98.2168 36.9922 98.709 36.9922C99.2832 36.9922 99.7435 36.8919 100.09 36.6914C100.445 36.4909 100.742 36.1217 100.979 35.584L101.484 34.2852L94.498 20.0938H98.9141L103.316 29.5ZM128.842 33.3691C128.687 35.5111 127.894 37.1973 126.463 38.4277C125.041 39.6582 123.163 40.2734 120.83 40.2734C118.278 40.2734 116.268 39.4167 114.801 37.7031C113.342 35.9805 112.613 33.6198 112.613 30.6211V29.4043C112.613 27.4902 112.951 25.804 113.625 24.3457C114.299 22.8874 115.261 21.7708 116.51 20.9961C117.768 20.2122 119.226 19.8203 120.885 19.8203C123.182 19.8203 125.032 20.4355 126.436 21.666C127.839 22.8965 128.65 24.6237 128.869 26.8477H124.768C124.667 25.5625 124.307 24.6328 123.688 24.0586C123.077 23.4753 122.143 23.1836 120.885 23.1836C119.518 23.1836 118.492 23.6758 117.809 24.6602C117.134 25.6354 116.788 27.153 116.77 29.2129V30.7168C116.77 32.8678 117.093 34.4401 117.74 35.4336C118.396 36.4271 119.426 36.9238 120.83 36.9238C122.097 36.9238 123.04 36.6367 123.66 36.0625C124.289 35.4792 124.649 34.5814 124.74 33.3691H128.842ZM147.162 33.3691C147.007 35.5111 146.214 37.1973 144.783 38.4277C143.361 39.6582 141.484 40.2734 139.15 40.2734C136.598 40.2734 134.589 39.4167 133.121 37.7031C131.663 35.9805 130.934 33.6198 130.934 30.6211V29.4043C130.934 27.4902 131.271 25.804 131.945 24.3457C132.62 22.8874 133.581 21.7708 134.83 20.9961C136.088 20.2122 137.546 19.8203 139.205 19.8203C141.502 19.8203 143.352 20.4355 144.756 21.666C146.16 22.8965 146.971 24.6237 147.189 26.8477H143.088C142.988 25.5625 142.628 24.6328 142.008 24.0586C141.397 23.4753 140.463 23.1836 139.205 23.1836C137.838 23.1836 136.812 23.6758 136.129 24.6602C135.454 25.6354 135.108 27.153 135.09 29.2129V30.7168C135.09 32.8678 135.413 34.4401 136.061 35.4336C136.717 36.4271 137.747 36.9238 139.15 36.9238C140.417 36.9238 141.361 36.6367 141.98 36.0625C142.609 35.4792 142.969 34.5814 143.061 33.3691H147.162ZM156.35 31.8652H153.984V40H149.883V20.0938H153.984V28.0645H155.857L160.725 20.0938H165.729L159.59 29.5137L166.371 40H161.477L156.35 31.8652ZM179.893 20.0938H184.008V40H179.893V26.7793L171.922 40H167.82V20.0938H171.922V33.3418L179.893 20.0938ZM199.498 20.0938H203.613V40H199.498V26.7793L191.527 40H187.426V20.0938H191.527V33.3418L199.498 20.0938ZM200.291 14.8574C200.291 16.0697 199.854 17.0495 198.979 17.7969C198.113 18.5443 196.973 18.918 195.561 18.918C194.148 18.918 193.004 18.5488 192.129 17.8105C191.263 17.0723 190.83 16.0879 190.83 14.8574H193.633C193.633 15.4316 193.801 15.8783 194.139 16.1973C194.485 16.5072 194.959 16.6621 195.561 16.6621C196.153 16.6621 196.618 16.5072 196.955 16.1973C197.292 15.8783 197.461 15.4316 197.461 14.8574H200.291ZM220.635 31.8652H218.27V40H214.168V20.0938H218.27V28.0645H220.143L225.01 20.0938H230.014L223.875 29.5137L230.656 40H225.762L220.635 31.8652ZM248.156 30.498C248.156 32.4577 247.81 34.1758 247.117 35.6523C246.424 37.1289 245.431 38.2682 244.137 39.0703C242.852 39.8724 241.375 40.2734 239.707 40.2734C238.057 40.2734 236.585 39.877 235.291 39.084C233.997 38.291 232.994 37.1608 232.283 35.6934C231.572 34.2168 231.212 32.5215 231.203 30.6074V29.623C231.203 27.6634 231.554 25.9408 232.256 24.4551C232.967 22.9603 233.965 21.8164 235.25 21.0234C236.544 20.2214 238.021 19.8203 239.68 19.8203C241.339 19.8203 242.811 20.2214 244.096 21.0234C245.39 21.8164 246.388 22.9603 247.09 24.4551C247.801 25.9408 248.156 27.6589 248.156 29.6094V30.498ZM244 29.5957C244 27.5085 243.626 25.9225 242.879 24.8379C242.132 23.7533 241.065 23.2109 239.68 23.2109C238.303 23.2109 237.242 23.7487 236.494 24.8242C235.747 25.8906 235.368 27.4583 235.359 29.5273V30.498C235.359 32.5306 235.733 34.1074 236.48 35.2285C237.228 36.3496 238.303 36.9102 239.707 36.9102C241.083 36.9102 242.141 36.3724 242.879 35.2969C243.617 34.2122 243.991 32.6354 244 30.5664V29.5957ZM266.887 20.0938V40H262.771V23.416H257.467L257.139 30.4434C257.002 32.8132 256.701 34.6816 256.236 36.0488C255.771 37.4069 255.092 38.4049 254.199 39.043C253.306 39.6719 252.085 39.9909 250.535 40H249.469V36.7051L250.152 36.6367C251.182 36.5 251.916 35.9076 252.354 34.8594C252.8 33.8021 253.083 31.9245 253.201 29.2266L253.543 20.0938H266.887ZM286.82 30.498C286.82 32.4577 286.474 34.1758 285.781 35.6523C285.089 37.1289 284.095 38.2682 282.801 39.0703C281.516 39.8724 280.039 40.2734 278.371 40.2734C276.721 40.2734 275.249 39.877 273.955 39.084C272.661 38.291 271.658 37.1608 270.947 35.6934C270.236 34.2168 269.876 32.5215 269.867 30.6074V29.623C269.867 27.6634 270.218 25.9408 270.92 24.4551C271.631 22.9603 272.629 21.8164 273.914 21.0234C275.208 20.2214 276.685 19.8203 278.344 19.8203C280.003 19.8203 281.475 20.2214 282.76 21.0234C284.054 21.8164 285.052 22.9603 285.754 24.4551C286.465 25.9408 286.82 27.6589 286.82 29.6094V30.498ZM282.664 29.5957C282.664 27.5085 282.29 25.9225 281.543 24.8379C280.796 23.7533 279.729 23.2109 278.344 23.2109C276.967 23.2109 275.906 23.7487 275.158 24.8242C274.411 25.8906 274.033 27.4583 274.023 29.5273V30.498C274.023 32.5306 274.397 34.1074 275.145 35.2285C275.892 36.3496 276.967 36.9102 278.371 36.9102C279.747 36.9102 280.805 36.3724 281.543 35.2969C282.281 34.2122 282.655 32.6354 282.664 30.5664V29.5957ZM296.295 31.8652H293.93V40H289.828V20.0938H293.93V28.0645H295.803L300.67 20.0938H305.674L299.535 29.5137L306.316 40H301.422L296.295 31.8652ZM323.816 30.498C323.816 32.4577 323.47 34.1758 322.777 35.6523C322.085 37.1289 321.091 38.2682 319.797 39.0703C318.512 39.8724 317.035 40.2734 315.367 40.2734C313.717 40.2734 312.245 39.877 310.951 39.084C309.657 38.291 308.654 37.1608 307.943 35.6934C307.232 34.2168 306.872 32.5215 306.863 30.6074V29.623C306.863 27.6634 307.214 25.9408 307.916 24.4551C308.627 22.9603 309.625 21.8164 310.91 21.0234C312.204 20.2214 313.681 19.8203 315.34 19.8203C316.999 19.8203 318.471 20.2214 319.756 21.0234C321.05 21.8164 322.048 22.9603 322.75 24.4551C323.461 25.9408 323.816 27.6589 323.816 29.6094V30.498ZM319.66 29.5957C319.66 27.5085 319.286 25.9225 318.539 24.8379C317.792 23.7533 316.725 23.2109 315.34 23.2109C313.964 23.2109 312.902 23.7487 312.154 24.8242C311.407 25.8906 311.029 27.4583 311.02 29.5273V30.498C311.02 32.5306 311.393 34.1074 312.141 35.2285C312.888 36.3496 313.964 36.9102 315.367 36.9102C316.743 36.9102 317.801 36.3724 318.539 35.2969C319.277 34.2122 319.651 32.6354 319.66 30.5664V29.5957ZM342.547 20.0938V40H338.432V23.416H333.127L332.799 30.4434C332.662 32.8132 332.361 34.6816 331.896 36.0488C331.432 37.4069 330.753 38.4049 329.859 39.043C328.966 39.6719 327.745 39.9909 326.195 40H325.129V36.7051L325.812 36.6367C326.842 36.5 327.576 35.9076 328.014 34.8594C328.46 33.8021 328.743 31.9245 328.861 29.2266L329.203 20.0938H342.547Z" fill="black"/>
<path d="M194.815 66V50.3594H199.929C201.626 50.3594 202.901 50.7103 203.753 51.4121C204.612 52.1139 205.042 53.1523 205.042 54.5273C205.042 55.2578 204.834 55.9059 204.419 56.4717C204.004 57.0303 203.438 57.4635 202.722 57.7715C203.567 58.0078 204.233 58.459 204.72 59.125C205.214 59.7839 205.461 60.5716 205.461 61.4883C205.461 62.8919 205.006 63.9948 204.097 64.7969C203.187 65.599 201.902 66 200.24 66H194.815ZM196.878 58.6846V64.3135H200.283C201.243 64.3135 201.998 64.0664 202.55 63.5723C203.108 63.071 203.388 62.3835 203.388 61.5098C203.388 59.6263 202.364 58.6846 200.315 58.6846H196.878ZM196.878 57.0303H199.993C200.896 57.0303 201.615 56.8047 202.152 56.3535C202.697 55.9023 202.969 55.29 202.969 54.5166C202.969 53.6572 202.718 53.0342 202.217 52.6475C201.715 52.2536 200.953 52.0566 199.929 52.0566H196.878V57.0303ZM207.685 60.0811C207.685 58.9424 207.907 57.9183 208.351 57.0088C208.802 56.0993 209.425 55.3975 210.22 54.9033C211.022 54.4092 211.935 54.1621 212.959 54.1621C214.542 54.1621 215.82 54.71 216.794 55.8057C217.775 56.9014 218.266 58.3587 218.266 60.1777V60.3174C218.266 61.4489 218.047 62.4658 217.61 63.3682C217.181 64.2633 216.561 64.9616 215.752 65.4629C214.95 65.9642 214.026 66.2148 212.98 66.2148C211.405 66.2148 210.127 65.667 209.146 64.5713C208.172 63.4756 207.685 62.0254 207.685 60.2207V60.0811ZM209.683 60.3174C209.683 61.6064 209.98 62.6413 210.574 63.4219C211.176 64.2025 211.978 64.5928 212.98 64.5928C213.99 64.5928 214.792 64.1989 215.387 63.4111C215.981 62.6162 216.278 61.5062 216.278 60.0811C216.278 58.8063 215.974 57.7751 215.365 56.9873C214.764 56.1924 213.962 55.7949 212.959 55.7949C211.978 55.7949 211.187 56.1852 210.585 56.9658C209.983 57.7464 209.683 58.8636 209.683 60.3174ZM230.576 60.3174C230.576 62.0863 230.172 63.5114 229.362 64.5928C228.553 65.6742 227.457 66.2148 226.075 66.2148C224.664 66.2148 223.554 65.7673 222.745 64.8721V70.4688H220.758V54.377H222.573L222.67 55.666C223.479 54.6634 224.604 54.1621 226.043 54.1621C227.439 54.1621 228.542 54.6885 229.352 55.7412C230.168 56.7939 230.576 58.2585 230.576 60.1348V60.3174ZM228.589 60.0918C228.589 58.7812 228.31 57.7464 227.751 56.9873C227.192 56.2282 226.426 55.8486 225.452 55.8486C224.249 55.8486 223.347 56.3822 222.745 57.4492V63.0029C223.34 64.0628 224.249 64.5928 225.474 64.5928C226.426 64.5928 227.182 64.2168 227.74 63.4648C228.306 62.7057 228.589 61.5814 228.589 60.0918ZM232.585 60.0811C232.585 58.9424 232.807 57.9183 233.251 57.0088C233.702 56.0993 234.325 55.3975 235.12 54.9033C235.922 54.4092 236.835 54.1621 237.859 54.1621C239.442 54.1621 240.72 54.71 241.694 55.8057C242.675 56.9014 243.166 58.3587 243.166 60.1777V60.3174C243.166 61.4489 242.948 62.4658 242.511 63.3682C242.081 64.2633 241.462 64.9616 240.652 65.4629C239.85 65.9642 238.926 66.2148 237.881 66.2148C236.305 66.2148 235.027 65.667 234.046 64.5713C233.072 63.4756 232.585 62.0254 232.585 60.2207V60.0811ZM234.583 60.3174C234.583 61.6064 234.88 62.6413 235.475 63.4219C236.076 64.2025 236.878 64.5928 237.881 64.5928C238.891 64.5928 239.693 64.1989 240.287 63.4111C240.882 62.6162 241.179 61.5062 241.179 60.0811C241.179 58.8063 240.874 57.7751 240.266 56.9873C239.664 56.1924 238.862 55.7949 237.859 55.7949C236.878 55.7949 236.087 56.1852 235.485 56.9658C234.884 57.7464 234.583 58.8636 234.583 60.3174ZM255.154 66H253.167V61.0371H247.828V66H245.83V54.377H247.828V59.415H253.167V54.377H255.154V66ZM263.179 66.2148C261.603 66.2148 260.321 65.6992 259.333 64.668C258.345 63.6296 257.851 62.2438 257.851 60.5107V60.1455C257.851 58.9925 258.069 57.9648 258.506 57.0625C258.95 56.153 259.566 55.444 260.354 54.9355C261.148 54.4199 262.008 54.1621 262.932 54.1621C264.443 54.1621 265.617 54.6598 266.455 55.6553C267.293 56.6507 267.712 58.0758 267.712 59.9307V60.7578H259.838C259.867 61.9036 260.2 62.8311 260.837 63.54C261.481 64.2419 262.298 64.5928 263.286 64.5928C263.988 64.5928 264.582 64.4495 265.069 64.1631C265.556 63.8766 265.982 63.4971 266.348 63.0244L267.562 63.9697C266.588 65.4665 265.127 66.2148 263.179 66.2148ZM262.932 55.7949C262.13 55.7949 261.456 56.0885 260.912 56.6758C260.368 57.2559 260.031 58.0723 259.902 59.125H265.725V58.9746C265.667 57.9648 265.395 57.1842 264.908 56.6328C264.421 56.0742 263.762 55.7949 262.932 55.7949ZM279.292 60.9512H277.896V66H275.908V60.9512H274.512L271.257 66H268.743L272.9 59.9844L269.141 54.377H271.547L274.544 59.1895H275.908V54.377H277.896V59.1895H279.249L282.268 54.377H284.674L280.903 59.9951L285.061 66H282.547L279.292 60.9512ZM286.801 69.1152L285.673 68.3418C286.346 67.4036 286.697 66.4368 286.726 65.4414V63.6475H288.67V65.2051C288.67 65.9284 288.491 66.6517 288.133 67.375C287.782 68.0983 287.338 68.6784 286.801 69.1152ZM302.968 66H300.97V52.7549L296.963 54.2266V52.4219L302.656 50.2842H302.968V66ZM316.406 59.125C315.991 59.6191 315.493 60.0166 314.913 60.3174C314.34 60.6182 313.71 60.7686 313.022 60.7686C312.12 60.7686 311.332 60.5465 310.659 60.1025C309.993 59.6585 309.478 59.0355 309.112 58.2334C308.747 57.4242 308.564 56.5326 308.564 55.5586C308.564 54.513 308.761 53.5713 309.155 52.7334C309.556 51.8955 310.122 51.2546 310.853 50.8105C311.583 50.3665 312.435 50.1445 313.409 50.1445C314.956 50.1445 316.174 50.7246 317.062 51.8848C317.957 53.0378 318.404 54.6133 318.404 56.6113V57.1914C318.404 60.235 317.803 62.4587 316.6 63.8623C315.396 65.2588 313.581 65.9749 311.153 66.0107H310.767V64.335H311.186C312.826 64.3063 314.086 63.8802 314.967 63.0566C315.848 62.2259 316.327 60.9154 316.406 59.125ZM313.345 59.125C314.011 59.125 314.623 58.9209 315.182 58.5127C315.747 58.1045 316.159 57.5996 316.417 56.998V56.2031C316.417 54.8997 316.134 53.8398 315.568 53.0234C315.003 52.207 314.286 51.7988 313.42 51.7988C312.546 51.7988 311.844 52.1354 311.314 52.8086C310.785 53.4746 310.52 54.3555 310.52 55.4512C310.52 56.5182 310.774 57.3991 311.282 58.0938C311.798 58.7812 312.485 59.125 313.345 59.125ZM331.241 51.4766L324.764 66H322.68L329.136 51.9922H320.671V50.3594H331.241V51.4766ZM336.387 57.2129H337.88C338.818 57.1986 339.556 56.9515 340.093 56.4717C340.63 55.9919 340.898 55.3438 340.898 54.5273C340.898 52.694 339.985 51.7773 338.159 51.7773C337.3 51.7773 336.612 52.0244 336.097 52.5186C335.588 53.0055 335.334 53.6536 335.334 54.4629H333.347C333.347 53.224 333.798 52.1963 334.7 51.3799C335.61 50.5563 336.763 50.1445 338.159 50.1445C339.634 50.1445 340.791 50.5348 341.629 51.3154C342.467 52.096 342.886 53.181 342.886 54.5703C342.886 55.2507 342.664 55.9095 342.22 56.5469C341.783 57.1842 341.185 57.6605 340.426 57.9756C341.285 58.2477 341.948 58.6989 342.413 59.3291C342.886 59.9593 343.122 60.7292 343.122 61.6387C343.122 63.0423 342.664 64.1559 341.747 64.9795C340.83 65.8031 339.638 66.2148 338.17 66.2148C336.702 66.2148 335.506 65.8174 334.582 65.0225C333.665 64.2275 333.207 63.1784 333.207 61.875H335.205C335.205 62.6986 335.474 63.3574 336.011 63.8516C336.548 64.3457 337.268 64.5928 338.17 64.5928C339.13 64.5928 339.864 64.3421 340.372 63.8408C340.881 63.3395 341.135 62.6198 341.135 61.6816C341.135 60.7721 340.855 60.0739 340.297 59.5869C339.738 59.0999 338.933 58.8493 337.88 58.835H336.387V57.2129Z" fill="black"/>
</svg>
