<svg width="24" height="25" viewBox="0 0 24 25" fill="none" xmlns="http://www.w3.org/2000/svg">
<path d="M9.88461 1.55322C8.1274 1.55322 6.40965 2.0743 4.94859 3.05056C3.48752 4.02682 2.34876 5.41442 1.6763 7.03788C1.00385 8.66134 0.827905 10.4478 1.17072 12.1712C1.51353 13.8947 2.35971 15.4778 3.60224 16.7203C4.84478 17.9629 6.42786 18.809 8.15131 19.1519C9.87475 19.4947 11.6611 19.3187 13.2846 18.6463C14.908 17.9738 16.2956 16.835 17.2719 15.374C18.2481 13.9129 18.7692 12.1951 18.7692 10.4379C18.7691 8.08158 17.833 5.82182 16.1668 4.15565C14.5006 2.48948 12.2409 1.55337 9.88461 1.55322V1.55322Z" stroke="#939191" stroke-width="2" stroke-miterlimit="10"/>
<path d="M17.077 17.6301L23 23.5532" stroke="#939191" stroke-width="2" stroke-miterlimit="10" stroke-linecap="round"/>
</svg>
