<svg width="33" height="33" viewBox="0 0 33 33" fill="none" xmlns="http://www.w3.org/2000/svg">
<path d="M31 16.5C31 8.49479 24.5052 2 16.5 2C8.49479 2 2 8.49479 2 16.5C2 24.5052 8.49479 31 16.5 31C24.5052 31 31 24.5052 31 16.5Z" stroke="#5B5A5A" stroke-width="3" stroke-miterlimit="10"/>
<path d="M12.5201 22.8544L22.0733 17.0832C22.2064 17.0021 22.3165 16.8881 22.3929 16.7521C22.4692 16.6162 22.5093 16.4629 22.5093 16.3069C22.5093 16.151 22.4692 15.9977 22.3929 15.8618C22.3165 15.7258 22.2064 15.6118 22.0733 15.5307L12.5201 9.75952C12.3832 9.67748 12.2269 9.63335 12.0672 9.63164C11.9076 9.62994 11.7504 9.67073 11.6118 9.74982C11.4731 9.82892 11.358 9.94348 11.2782 10.0817C11.1985 10.22 11.1569 10.377 11.1579 10.5366V22.0772C11.1569 22.2369 11.1985 22.3939 11.2782 22.5321C11.358 22.6704 11.4731 22.785 11.6118 22.8641C11.7504 22.9431 11.9076 22.9839 12.0672 22.9822C12.2269 22.9805 12.3832 22.9364 12.5201 22.8544Z" fill="#5B5A5A"/>
</svg>
